<svg width="50" height="40" viewBox="0 0 50 40" fill="none" xmlns="http://www.w3.org/2000/svg">
<path d="M0 3.62208C0 1.7956 1.48066 0.314941 3.30714 0.314941H46.6929C48.5193 0.314941 50 1.7956 50 3.62208C50 5.44856 48.5193 6.92922 46.6929 6.92922H3.30714C1.48066 6.92922 0 5.44856 0 3.62208ZM12.5 20.1578C12.5 18.3313 13.9807 16.8506 15.8071 16.8506H46.6929C48.5193 16.8506 50 18.3313 50 20.1578C50 21.9842 48.5193 23.4649 46.6929 23.4649H15.8071C13.9807 23.4649 12.5 21.9842 12.5 20.1578ZM28.125 36.6935C28.125 34.867 29.6057 33.3863 31.4321 33.3863H46.6929C48.5193 33.3863 50 34.867 50 36.6935C50 38.5199 48.5193 40.0006 46.6929 40.0006H31.4321C29.6057 40.0006 28.125 38.5199 28.125 36.6935Z" fill="#D1D1D1"/>
</svg>
